<?xml version="1.0" encoding="UTF-8"?>
<svg width="82px" height="82px" viewBox="0 0 82 82" version="1.1" xmlns="http://www.w3.org/2000/svg" xmlns:xlink="http://www.w3.org/1999/xlink">
    <!-- Generator: Sketch 49.3 (51167) - http://www.bohemiancoding.com/sketch -->
    <title>Group</title>
    <desc>Created with Sketch.</desc>
    <defs></defs>
    <g id="Page-1" stroke="none" stroke-width="1" fill="none" fill-rule="evenodd">
        <g id="Group" transform="translate(1.000000, 1.000000)">
            <ellipse id="path-1" stroke="#FFFFFF" stroke-width="2" stroke-linecap="round" stroke-linejoin="round" fill-rule="nonzero" cx="40" cy="39.7" rx="40" ry="39.7"></ellipse>
            <path d="M66.56875,68.56875 C66.86875,68.96875 67.56875,69.06875 67.96875,68.76875 C68.36875,68.46875 68.46875,67.76875 68.16875,67.36875 C66.26875,64.86875 64.66875,64.06875 61.56875,63.36875 L61.46875,63.36875 C61.36875,63.36875 61.16875,63.26875 60.76875,63.26875 C60.26875,63.16875 59.66875,63.06875 58.96875,62.86875 C57.06875,62.46875 55.26875,61.86875 53.56875,61.16875 C52.06875,60.56875 50.76875,59.76875 49.66875,58.96875 C49.06875,58.56875 48.06875,57.26875 46.86875,55.46875 C46.56875,54.96875 45.96875,54.86875 45.46875,55.16875 C44.96875,55.46875 44.86875,56.06875 45.16875,56.56875 C46.56875,58.66875 47.66875,59.96875 48.46875,60.56875 C49.66875,61.46875 51.16875,62.26875 52.76875,62.96875 C54.56875,63.76875 56.56875,64.36875 58.56875,64.76875 C59.26875,64.96875 59.86875,65.06875 60.46875,65.16875 C60.76875,65.26875 60.96875,65.26875 61.16875,65.26875 C63.66875,65.96875 64.96875,66.46875 66.56875,68.56875 Z" id="_Контур_425" fill="#FFFFFF" fill-rule="nonzero"></path>
            <path d="M13.7744333,69.56875 C13.4744333,69.96875 12.7744333,70.06875 12.3744333,69.76875 C11.9744333,69.46875 11.8744333,68.76875 12.1744333,68.36875 C14.0744333,65.86875 15.6744333,65.06875 18.7744333,64.36875 L18.8744333,64.36875 C18.9744333,64.36875 19.1744333,64.26875 19.5744333,64.26875 C20.0744333,64.06875 20.6744333,63.96875 21.2744333,63.86875 C23.1744333,63.46875 24.9744333,62.86875 26.6744333,62.16875 C28.1744333,61.56875 29.4744333,60.76875 30.5744333,59.96875 C31.1744333,59.56875 32.1744333,58.26875 33.3744333,56.46875 C33.8744333,55.96875 34.4744333,55.86875 34.9744333,56.16875 C35.4744333,56.46875 35.5744333,57.06875 35.2744333,57.56875 C33.8744333,59.66875 32.7744333,60.96875 31.9744333,61.56875 C30.7744333,62.46875 29.2744333,63.26875 27.6744333,63.96875 C25.8744333,64.76875 23.8744333,65.36875 21.8744333,65.76875 C21.1744333,65.96875 20.5744333,66.06875 19.9744333,66.16875 C19.6744333,66.26875 19.4744333,66.26875 19.2744333,66.26875 C16.6744333,66.96875 15.3744333,67.46875 13.7744333,69.56875 Z" id="_Контур_425_1_" fill="#FFFFFF" fill-rule="nonzero"></path>
            <path d="M30,63 C30,63 32.7,69 40.6,69 C45.2,69.1 49.4,66.8 51.8,63" id="_Контур_426" stroke="#FFFFFF" stroke-width="2" stroke-linecap="round" stroke-linejoin="round"></path>
            <path d="M35,49 C35,49 37.9,51.4 40.8,51.4 C43.7,51.4 46.7,49 46.7,49" id="_Контур_427" stroke="#FFFFFF" stroke-width="2" stroke-linecap="round" stroke-linejoin="round"></path>
            <path d="M36.4,33.2 C34.2,31.6 31.2,31.6 29,33.2" id="_Контур_428" stroke="#FFFFFF" stroke-width="2" stroke-linecap="round" stroke-linejoin="round"></path>
            <path d="M53.4,33.2 C51.2,31.6 48.2,31.6 46,33.2" id="_Контур_429" stroke="#FFFFFF" stroke-width="2" stroke-linecap="round" stroke-linejoin="round"></path>
            <polyline id="_Контур_430" stroke="#FFFFFF" stroke-width="2" stroke-linecap="round" stroke-linejoin="round" points="41.1 38 38 44.6 41.1 45.5"></polyline>
            <path d="M25,29.2 C25,29.2 41.3,24.5 41.3,21 C41.3,24.6 55.6,28.4 55.6,28.4" id="_Контур_431" stroke="#FFFFFF" stroke-width="2" stroke-linecap="round" stroke-linejoin="round"></path>
            <path d="M47.1,16 C47.2,15.6 47.3,15.2 47.2,14.7 C47.3,11.5 44.5,9 41.1,9 C37.7,9 35,11.6 35,14.7 C35,15.1 35,15.6 35.1,16" id="_Контур_433" stroke="#FFFFFF" stroke-width="2" stroke-linecap="round" stroke-linejoin="round"></path>
            <path d="M40.565192,57 C50.365192,57 56.565192,48.2 57.165192,37.1 C57.765192,26 52.865192,16 40.565192,16 C28.265192,16 23.365192,27.1 24.065192,37.1 C24.765192,47.1 30.765192,57 40.565192,57 Z" id="_Контур_434" stroke="#FFFFFF" stroke-width="2" stroke-linecap="round" stroke-linejoin="round"></path>
            <path d="M56,44.9 L56.1,44.9 C58.8,44.9 61,42.2 61,38.9 C61,36 59.5,33.7 57.3,33" id="_Контур_436" stroke="#FFFFFF" stroke-width="2" stroke-linecap="round" stroke-linejoin="round"></path>
            <path d="M23.8,33 C21.6,33.6 20,36 20,38.9 C20,42.2 22.2,44.9 24.9,44.9 C25,44.9 25.1,44.9 25.3,44.9" id="_Контур_435" stroke="#FFFFFF" stroke-width="2" stroke-linecap="round" stroke-linejoin="round"></path>
            <circle id="_Контур_438" fill="#FFFFFF" fill-rule="nonzero" cx="48.8" cy="36.8" r="1.8"></circle>
            <circle id="_Контур_437" fill="#FFFFFF" fill-rule="nonzero" cx="32.8" cy="36.8" r="1.8"></circle>
        </g>
    </g>
</svg>