<?xml version="1.0" encoding="UTF-8"?>
<svg width="82px" height="82px" viewBox="0 0 82 82" version="1.1" xmlns="http://www.w3.org/2000/svg" xmlns:xlink="http://www.w3.org/1999/xlink">
    <!-- Generator: Sketch 49 (51002) - http://www.bohemiancoding.com/sketch -->
    <title>face</title>
    <desc>Created with Sketch.</desc>
    <defs>
        <ellipse id="path-1" cx="39.7633334" cy="39.5" rx="39.7633334" ry="39.5"></ellipse>
    </defs>
    <g id="Page-1" stroke="none" stroke-width="1" fill="none" fill-rule="evenodd">
        <g id="face" transform="translate(1.000000, 1.000000)">
            <g id="Mask" stroke-linecap="round" stroke-linejoin="round" fill="#FFFFFF" fill-rule="nonzero" stroke="#20A052" stroke-width="2">
                <ellipse id="path-1" cx="40" cy="39.7350993" rx="40" ry="39.7350993"></ellipse>
            </g>
            <g id="_Контур_425-Clipped">
                <g>
                    <mask id="mask-2" fill="white">
                        <use xlink:href="#path-1"></use>
                    </mask>
                    <g id="path-1"></g>
                    <path d="M46.7968191,68.6320304 C46.4631199,69.0721023 45.8358545,69.1583345 45.3957826,68.8246353 C44.9557107,68.4909361 44.8694785,67.8636707 45.2031777,67.4235988 C47.0825053,64.945201 48.7462489,64.1677276 51.7652986,63.3770005 L51.8829872,63.3536179 C51.9976206,63.3379195 52.2233881,63.3027158 52.5442268,63.2457266 C53.0848844,63.1496919 53.6888175,63.0272984 54.3398803,62.8763378 C56.1983877,62.4454095 58.0557013,61.8737154 59.7807799,61.1462229 C61.2817344,60.5132471 62.6104947,59.7903682 63.7217361,58.97557 C64.3007729,58.5521573 65.296072,57.3099991 66.5674298,55.4381444 C66.877734,54.9812749 67.4996512,54.8624604 67.9565207,55.1727647 C68.4133902,55.4830689 68.5322047,56.1049861 68.2219004,56.5618556 C66.8165283,58.6310233 65.734485,59.9814405 64.9033096,60.589225 C63.6565871,61.5033635 62.1935631,62.2992852 60.5579314,62.9890565 C58.7170829,63.7653709 56.7537603,64.3696953 54.7916315,64.8246501 C54.1054717,64.9837486 53.467698,65.1130002 52.8940034,65.2149032 C52.5932081,65.2683322 52.3641996,65.3049228 52.2171852,65.326245 C49.653724,66.0106313 48.3937679,66.5260249 46.7968191,68.6320304 Z" id="_Контур_425" fill="#20A052" fill-rule="nonzero" mask="url(#mask-2)" transform="translate(56.697354, 62.013886) scale(-1, 1) translate(-56.697354, -62.013886) "></path>
                    <path d="M13.7968191,68.6320304 C13.4631199,69.0721023 12.8358545,69.1583345 12.3957826,68.8246353 C11.9557107,68.4909361 11.8694785,67.8636707 12.2031777,67.4235988 C14.0825053,64.945201 15.7462489,64.1677276 18.7652986,63.3770005 L18.8829872,63.3536179 C18.9976206,63.3379195 19.2233881,63.3027158 19.5442268,63.2457266 C20.0848844,63.1496919 20.6888175,63.0272984 21.3398803,62.8763378 C23.1983877,62.4454095 25.0557013,61.8737154 26.7807799,61.1462229 C28.2817344,60.5132471 29.6104947,59.7903682 30.7217361,58.97557 C31.3007729,58.5521573 32.296072,57.3099991 33.5674298,55.4381444 C33.877734,54.9812749 34.4996512,54.8624604 34.9565207,55.1727647 C35.4133902,55.4830689 35.5322047,56.1049861 35.2219004,56.5618556 C33.8165283,58.6310233 32.734485,59.9814405 31.9033096,60.589225 C30.6565871,61.5033635 29.1935631,62.2992852 27.5579314,62.9890565 C25.7170829,63.7653709 23.7537603,64.3696953 21.7916315,64.8246501 C21.1054717,64.9837486 20.467698,65.1130002 19.8940034,65.2149032 C19.5932081,65.2683322 19.3641996,65.3049228 19.2171852,65.326245 C16.653724,66.0106313 15.3937679,66.5260249 13.7968191,68.6320304 Z" id="_Контур_425" fill="#20A052" fill-rule="nonzero" mask="url(#mask-2)"></path>
                </g>
            </g>
            <g id="_Контур_426-Clipped" stroke-linecap="round" stroke-linejoin="round" transform="translate(30.000000, 62.000000)" stroke="#20A052" stroke-width="2">
                <path d="M0,0 C0,0 2.6666667,6.0397351 10.624,6.0397351 C15.181003,6.1464289 19.4542961,3.8485693 21.856,0" id="_Контур_426"></path>
            </g>
            <g id="_Контур_427-Clipped" stroke-linecap="round" stroke-linejoin="round" transform="translate(35.000000, 49.000000)" stroke="#20A052" stroke-width="2">
                <path d="M0,0 C0,0 2.9173333,2.410596 5.8293333,2.410596 C8.7413333,2.410596 11.6586667,0 11.6586667,0" id="_Контур_427"></path>
            </g>
            <g id="_Контур_428-Clipped" stroke-linecap="round" stroke-linejoin="round" transform="translate(29.000000, 32.000000)" stroke="#20A052" stroke-width="2">
                <path d="M7.3653333,1.2035469 C5.1759542,-0.4011823 2.1893792,-0.4011823 3.55271368e-15,1.2035469" id="_Контур_428"></path>
            </g>
            <g id="_Контур_429-Clipped" stroke-linecap="round" stroke-linejoin="round" transform="translate(46.000000, 32.000000)" stroke="#20A052" stroke-width="2">
                <path d="M7.3653333,1.2035469 C5.1759542,-0.4011823 2.1893792,-0.4011823 7.10542736e-15,1.2035469" id="_Контур_429"></path>
            </g>
            <g id="_Контур_430-Clipped" stroke-linecap="round" stroke-linejoin="round" transform="translate(38.000000, 38.000000)" stroke="#20A052" stroke-width="2">
                <polyline id="_Контур_430" points="3.072 0 0 6.6278146 3.072 7.5284768"></polyline>
            </g>
            <g id="_Контур_431-Clipped" stroke-linecap="round" stroke-linejoin="round" transform="translate(25.000000, 21.000000)" stroke="#20A052" stroke-width="2">
                <path d="M0,8.2437086 C0,8.2437086 16.3146667,3.592053 16.3146667,0 C16.3146667,3.597351 30.616,7.4172185 30.616,7.4172185" id="_Контур_431"></path>
            </g>
            <g id="_Контур_433-Clipped" stroke-linecap="round" stroke-linejoin="round" transform="translate(35.000000, 9.000000)" stroke="#20A052" stroke-width="2">
                <path d="M12.128002,6.9933775 C12.228319,6.5769111 12.2784484,6.1500759 12.2773353,5.7218543 C12.2773353,2.5430464 9.5306686,0 6.1386686,0 C2.7466686,0 2.00000001e-06,2.5642384 2.00000001e-06,5.7218543 C-0.0003545,6.1392369 0.0479676,6.5552552 0.144002,6.9615894" id="_Контур_433"></path>
            </g>
            <g id="_Контур_434-Clipped" stroke-linecap="round" stroke-linejoin="round" transform="translate(24.000000, 16.000000)" stroke="#20A052" stroke-width="2">
                <path d="M16.6267515,40.9536424 C26.4507515,40.9536424 32.5894181,32.1165563 33.2027515,21.0807947 C33.8160848,10.0450331 28.9040848,0 16.6267515,0 C4.3494181,0 -0.5625819,11.1258278 0.0507515,21.0807947 C0.6640848,31.0357616 6.8080848,40.9536424 16.6267515,40.9536424 Z" id="_Контур_434"></path>
            </g>
            <g id="_Контур_436-Clipped" stroke-linecap="round" stroke-linejoin="round" transform="translate(56.000000, 33.000000)" stroke="#20A052" stroke-width="2">
                <path d="M1.42108547e-14,11.8516556 L0.1066667,11.8516556 C2.8213333,11.8516556 5.0186667,9.1549669 5.0186667,5.8278146 C5.0186667,3.0198675 3.456,0.6622517 1.3333333,0" id="_Контур_436"></path>
            </g>
            <g id="_Контур_435-Clipped" stroke-linecap="round" stroke-linejoin="round" transform="translate(20.000000, 33.000000)" stroke="#20A052" stroke-width="2">
                <path d="M3.824,0 C1.6373333,0.6092715 0,3.0039735 0,5.8754967 C0,9.202649 2.1973333,11.8993377 4.912,11.8993377 C5.0328889,11.8993377 5.1537778,11.8993377 5.2746667,11.8993377" id="_Контур_435"></path>
            </g>
            <ellipse id="_Контур_438" fill="#20A052" fill-rule="nonzero" cx="48.84" cy="36.8066225" rx="1.84" ry="1.80662252"></ellipse>
            <ellipse id="_Контур_437" fill="#20A052" fill-rule="nonzero" cx="32.84" cy="36.8066225" rx="1.84" ry="1.80662252"></ellipse>
        </g>
    </g>
</svg>