<?xml version="1.0" encoding="UTF-8"?>
<svg width="78px" height="78px" viewBox="0 0 78 78" version="1.1" xmlns="http://www.w3.org/2000/svg" xmlns:xlink="http://www.w3.org/1999/xlink">
    <!-- Generator: Sketch 50.2 (55047) - http://www.bohemiancoding.com/sketch -->
    <title>Group</title>
    <desc>Created with Sketch.</desc>
    <defs></defs>
    <g id="Page-1" stroke="none" stroke-width="1" fill="none" fill-rule="evenodd">
        <g id="Group" transform="translate(-1.000000, -1.000000)">
            <rect id="_Прямоугольник_29" x="0" y="0.264900662" width="80" height="79.4701987"></rect>
            <rect id="_Контур_185" stroke="#FFFFFF" stroke-width="2" stroke-linecap="round" stroke-linejoin="round" x="23.5893333" y="36.6357616" width="7.63733333" height="15.1682119"></rect>
            <path d="M55.8506667,36.2913907 C55.8506667,35.0536877 54.8406211,34.0503311 53.5946667,34.0503311 L44.5706667,34.0503311 C46.0053333,30.0238411 45.9893333,28.2701987 45.8506667,26.5483444 C45.712,24.8264901 44.2506667,23.3059603 42.5333333,23.4437086 L40.304,29.8966887 L34.7466667,36.6357616 L31.2266667,36.6357616 L31.2266667,49.1072848 C35.9786667,49.1072848 37.5893333,52.2013245 42.0373333,52.2013245 L49.0666667,52.2013245 C50.3146667,52.2013245 53.52,52.2013245 54.1226667,49.9602649 L55.8506667,36.2913907 Z" id="_Контур_186" stroke="#FFFFFF" stroke-width="2" stroke-linecap="round" stroke-linejoin="round"></path>
            <ellipse id="_Контур_187" stroke="#FFFFFF" stroke-width="2" stroke-linecap="round" stroke-linejoin="round" cx="40" cy="40" rx="26.7093333" ry="26.5324503"></ellipse>
            <path d="M60.2986667,69.6423841 C60.0896237,70.9588091 59.2789206,72.1049683 58.1030259,72.7465463 C56.9271313,73.3881243 55.5184977,73.4528538 54.288,72.9218543 L52.4533333,72.2119205 C49.4586542,71.2203663 46.1568951,72.0238577 43.9626667,74.2781457 L42.6613333,75.7509934 C41.8180954,76.7884809 40.5386875,77.379512 39.1966607,77.3515222 C37.8546338,77.3235325 36.6013256,76.6796784 35.8026667,75.607947 L34.5706667,74.0821192 C32.4756946,71.7358778 29.2111284,70.7922504 26.176,71.6556291 L24.3093333,72.2860927 C23.0564937,72.7653956 21.6508132,72.641163 20.5028307,71.9496781 C19.3548483,71.2581932 18.5940627,70.0774593 18.4426667,68.7523179 L18.1386667,66.818543 C17.5042428,63.7475703 15.152527,61.3104843 12.0906667,60.5509934 L10.16,60.1695364 C8.83479883,59.9618778 7.68099857,59.1565436 7.03514339,57.9884364 C6.38928821,56.8203291 6.32412718,55.4210242 6.85866667,54.1986755 L7.57333333,52.3761589 C8.5714979,49.4013121 7.76264988,46.1214189 5.49333333,43.9417219 L4.01066667,42.6490066 C2.96626261,41.8113531 2.3712913,40.5404181 2.3994676,39.2072788 C2.42764391,37.8741396 3.07579044,36.6291314 4.15466667,35.8357616 L5.69066667,34.6119205 C8.05254963,32.5308225 9.0024679,29.2878758 8.13333333,26.2728477 L7.49866667,24.418543 C7.01616847,23.1740003 7.14122922,21.777629 7.83732405,20.6372491 C8.53341888,19.4968691 9.72202435,18.7411219 11.056,18.5907285 L13.0026667,18.2887417 C16.0941126,17.6585193 18.5474458,15.3223778 19.312,12.2807947 L19.696,10.3629139 C19.905043,9.04648891 20.7157461,7.9003297 21.8916407,7.25875171 C23.0675354,6.61717372 24.4761689,6.55244422 25.7066667,7.08344371 L27.5413333,7.79337748 C30.5360125,8.78493169 33.8377716,7.98144028 36.032,5.72715232 L37.3333333,4.25430464 C38.1765712,3.21681716 39.4559791,2.62578606 40.798006,2.65377576 C42.1400328,2.68176547 43.3933411,3.32561964 44.192,4.39735099 L45.424,5.92317881 C47.518972,8.26942016 50.7835383,9.21304758 53.8186667,8.34966887 L55.6853333,7.7192053 C56.938173,7.23990246 58.3438535,7.36413499 59.4918359,8.05561992 C60.6398184,8.74710485 61.400604,9.92783876 61.552,11.2529801 L61.856,13.186755 C62.4904239,16.2577277 64.8421397,18.6948137 67.904,19.4543046 L69.8346667,19.8357616 C71.1598678,20.0434202 72.3136681,20.8487544 72.9595233,22.0168616 C73.6053785,23.1849689 73.6705395,24.5842738 73.136,25.8066225 L72.4213333,27.6291391 C71.4231688,30.6039859 72.2320168,33.8838791 74.5013333,36.0635762 L75.984,37.3562914 C77.0284041,38.1939449 77.6233754,39.4648799 77.5951991,40.7980192 C77.5670228,42.1311585 76.9188762,43.3761666 75.84,44.1695364 L74.304,45.3933775 C71.942117,47.4744755 70.9921988,50.7174222 71.8613333,53.7324503 L72.496,55.586755 C72.9784982,56.8312977 72.8534374,58.227669 72.1573426,59.3680489 C71.4612478,60.5084289 70.2726423,61.2641762 68.9386667,61.4145695 L66.992,61.7165563 C63.9005541,62.3467787 61.4472209,64.6829202 60.6826667,67.7245033 L60.2986667,69.6423841 Z" id="_Контур_188" stroke="#FFFFFF" stroke-width="2" stroke-linecap="round" stroke-linejoin="round"></path>
        </g>
    </g>
</svg>