<?xml version="1.0" encoding="UTF-8"?>
<svg width="60px" height="60px" viewBox="0 0 60 60" version="1.1" xmlns="http://www.w3.org/2000/svg" xmlns:xlink="http://www.w3.org/1999/xlink">
    <!-- Generator: Sketch 49 (51002) - http://www.bohemiancoding.com/sketch -->
    <title>Icon-60@3x Copy</title>
    <desc>Created with Sketch.</desc>
    <defs></defs>
    <g id="final" stroke="none" stroke-width="1" fill="none" fill-rule="evenodd">
        <g id="Mobile" transform="translate(-40.000000, -750.000000)" fill-rule="nonzero">
            <g id="Icon-60@3x-Copy" transform="translate(40.000000, 750.000000)">
                <path d="M39.0815,0 C45.105,0 48.116,0 51.3585,1.025 C54.8985,2.3135 57.6865,5.1015 58.975,8.6415 C60,11.8835 60,14.8955 60,20.9185 L60,39.0815 C60,45.105 60,48.116 58.975,51.3585 C57.6865,54.8985 54.8985,57.6865 51.3585,58.9745 C48.116,60 45.105,60 39.0815,60 L20.9185,60 C14.895,60 11.8835,60 8.6415,58.9745 C5.1015,57.6865 2.3135,54.8985 1.025,51.3585 C0,48.116 0,45.105 0,39.0815 L0,20.9185 C0,14.8955 0,11.8835 1.025,8.6415 C2.3135,5.1015 5.1015,2.3135 8.6415,1.025 C11.8835,0 14.895,0 20.9185,0 L39.0815,0 Z" id="Icon-Shape" fill="#20A052"></path>
                <g id="Group" transform="translate(10.352865, 4.845052)">
                    <path d="M36.5360327,25.2917067 C36.7332033,19.2690667 35.3792277,14.4133067 32.4982276,11.1383467 C30.7656423,9.17170667 28.5285935,7.79994667 25.8258862,7.01058667 C25.9601301,6.23994667 25.9475447,5.43810667 25.7703008,4.64250667 C25.2700325,2.40962667 23.4933984,0.646826667 21.2406179,0.151786667 C18.9395935,-0.350533333 16.5808862,0.465866667 15.1377642,2.25050667 C14.054374,3.58794667 13.6180813,5.30914667 13.8991545,7.01994667 C11.2090325,7.80930667 8.9793252,9.17794667 7.25198373,11.1383467 C4.36678863,14.4164267 3.0138618,19.2815467 3.21313007,25.3052267 C1.37881301,26.3577067 0.124471543,28.4127467 0.124471543,30.7953867 C0.124471543,33.9309867 2.29125203,36.5205867 5.110374,36.9646667 C7.61276423,44.4266667 13.1650081,49.2408267 19.8646179,49.3271467 L19.8751057,49.3271467 L19.8855935,49.3271467 C26.5841545,49.2408267 32.1363984,44.4277067 34.6387887,36.9677867 C37.4663007,36.5309867 39.6414717,33.9372267 39.6414717,30.7953867 C39.6414717,28.4054667 38.3808373,26.3400267 36.5360327,25.2917067" id="Fill-1" fill="#FFFFFF"></path>
                    <path d="M14.1036667,30.1027467 C14.1036667,29.1927467 13.3611301,28.4564267 12.4434472,28.4564267 C11.526813,28.4564267 10.7832276,29.1927467 10.7832276,30.1027467 C10.7832276,31.0127467 11.526813,31.7501067 12.4434472,31.7501067 C13.3611301,31.7501067 14.1036667,31.0127467 14.1036667,30.1027467" id="Fill-3" fill="#1C1C1B"></path>
                    <path d="M27.8070325,28.4564267 C26.8893496,28.4564267 26.146813,29.1927467 26.146813,30.1027467 C26.146813,31.0127467 26.8893496,31.7501067 27.8070325,31.7501067 C28.7236667,31.7501067 29.467252,31.0127467 29.467252,30.1027467 C29.467252,29.1927467 28.7236667,28.4564267 27.8070325,28.4564267" id="Fill-4" fill="#1C1C1B"></path>
                    <path d="M24.8012276,40.9998667 C23.6664472,42.3643467 21.8216423,43.1776267 19.8667154,43.1776267 C17.9065447,43.1776267 16.0585935,42.3601867 14.9248618,40.9884267 C14.6490325,40.6566667 14.1519106,40.6077867 13.8173496,40.8802667 C13.4817398,41.1527467 13.4324472,41.6446667 13.7082764,41.9774667 C15.1377642,43.7069867 17.4398374,44.7376267 19.8667154,44.7376267 C22.286252,44.7376267 24.5851789,43.7121867 26.0146667,41.9920267 C26.2915447,41.6602667 26.2433008,41.1683467 25.9087398,40.8937867 C25.5720813,40.6202667 25.0781057,40.6670667 24.8012276,40.9998667" id="Fill-5" fill="#1C1C1B"></path>
                    <path d="M17.5216423,30.6133867 C17.5216423,33.3298667 15.2227154,36.5049867 15.1996423,36.5372267 C15.0475691,36.7452267 15.0077154,37.0156267 15.095813,37.2579467 C15.1839106,37.5023467 15.387374,37.6864267 15.6401301,37.7498667 L19.6160569,38.7690667 C19.6821301,38.7857067 19.7482033,38.7940267 19.8132276,38.7940267 C20.1635203,38.7940267 20.4823496,38.5600267 20.5735935,38.2095467 C20.6826667,37.7914667 20.4299106,37.3661067 20.0093496,37.2579467 L17.0926911,36.5112267 C17.8698374,35.2361867 19.094813,32.8660267 19.094813,30.6133867 C19.094813,26.6655467 16.3176423,23.9074667 12.3406667,23.9074667 C9.8550569,23.9074667 8.1140813,24.5720267 6.69717887,26.0633867 C6.3993252,26.3774667 6.41400813,26.8704267 6.73073983,27.1657867 C7.04642277,27.4601067 7.5445935,27.4465867 7.84244717,27.1325067 C8.9520569,25.9656267 10.2976423,25.4674667 12.3406667,25.4674667 C15.9201545,25.4674667 17.5216423,28.0518667 17.5216423,30.6133867" id="Fill-6" fill="#1C1C1B"></path>
                    <path d="M28.4656667,23.9438667 C26.3534228,23.7805867 24.1855935,24.4607467 22.6575203,25.7576267 C22.3271545,26.0363467 22.2883496,26.5293067 22.5715203,26.8569067 C22.7267398,27.0368267 22.9469837,27.1293867 23.1693252,27.1293867 C23.3497154,27.1293867 23.5322033,27.0690667 23.6811301,26.9421867 C24.8987642,25.9084267 26.6397398,25.3603467 28.3461057,25.4986667 C29.8615935,25.6141067 31.1641789,26.0717067 32.1133252,26.8215467 C32.4520813,27.0888267 32.9471057,27.0347467 33.217691,26.6977867 C33.4893253,26.3618667 33.432691,25.8709867 33.093935,25.6016267 C31.8983252,24.6562667 30.2978862,24.0832267 28.4656667,23.9438667" id="Fill-7" fill="#1C1C1B"></path>
                    <path d="M36.5360327,25.2917067 C36.7332033,19.2690667 35.3792277,14.4133067 32.4982276,11.1383467 C30.7656423,9.17170667 28.5285935,7.79994667 25.8258862,7.01058667 C25.9601301,6.23994667 25.9475447,5.43810667 25.7703008,4.64250667 C25.2700325,2.40962667 23.4933984,0.646826667 21.2406179,0.151786667 C18.9395935,-0.350533333 16.5808862,0.465866667 15.1377642,2.25050667 C14.054374,3.58794667 13.6180813,5.30914667 13.8991545,7.01994667 C11.2090325,7.80930667 8.9793252,9.17794667 7.25198373,11.1383467 C4.36678863,14.4164267 3.0138618,19.2815467 3.21313007,25.3052267 C1.37881301,26.3577067 0.124471543,28.4127467 0.124471543,30.7953867 C0.124471543,33.9309867 2.29125203,36.5205867 5.110374,36.9646667 C7.61276423,44.4266667 13.1650081,49.2408267 19.8646179,49.3271467 L19.8751057,49.3271467 L19.8855935,49.3271467 C26.5841545,49.2408267 32.1363984,44.4277067 34.6387887,36.9677867 C37.4663007,36.5309867 39.6414717,33.9372267 39.6414717,30.7953867 C39.6414717,28.4054667 38.3808373,26.3400267 36.5360327,25.2917067 Z M16.2819837,3.16154667 C17.1587642,2.07786667 18.4644959,1.45698667 19.8635691,1.45698667 C20.2138618,1.45698667 20.5704472,1.49650667 20.9238862,1.57346667 C22.5945935,1.94058667 23.9653496,3.30090667 24.3366179,4.95762667 C24.4645691,5.53170667 24.4750569,6.10682667 24.3911545,6.66426667 C22.9920813,6.37930667 21.4954715,6.21810667 19.8751057,6.21810667 C18.2432033,6.21810667 16.7361057,6.38138667 15.3275935,6.67154667 C15.1513984,5.40586667 15.4870081,4.14642667 16.2819837,3.16154667 Z M5.66622763,17.3804267 C5.6735691,17.3606667 5.68300813,17.3481867 5.6893008,17.3294667 C6.30073983,15.3035467 7.20898373,13.5605067 8.4371057,12.1648267 C11.0003252,9.25386667 14.8483008,7.77810667 19.8751057,7.77810667 C24.9029593,7.77810667 28.750935,9.25386667 31.3131057,12.1648267 C32.5737398,13.5969067 33.5029593,15.3919467 34.1143983,17.4885867 C34.574813,18.8270667 35.3079107,22.2289067 35.3079107,22.2289067 C35.3079107,22.2289067 34.369252,20.3641867 33.451569,19.2503467 C32.6167398,18.4204267 31.631935,17.6809867 30.5023984,17.2764267 C29.0320081,16.7491467 27.6151057,16.6711467 26.2443496,16.5973067 C24.9879106,16.5297067 23.7755203,16.4548267 22.5411057,16.0533867 L22.5421545,16.0585867 C21.4849837,15.7871467 20.9784228,15.4449867 20.9784228,15.4449867 C20.9784228,15.4449867 21.4996667,15.0019467 21.9894472,14.4289067 C22.7435203,13.4658667 23.3895691,12.2885867 23.9129106,10.8887467 C24.0544959,10.5122667 23.8615203,10.0921067 23.480813,9.95274667 C23.1001057,9.81338667 22.6774472,10.0037067 22.5369106,10.3822667 C21.9747642,11.8840267 20.9459106,13.9161867 19.2426911,15.0622667 C17.2625935,16.3934667 15.430374,16.4933067 13.4911789,16.5973067 C12.1204228,16.6711467 10.7035203,16.7491467 9.2320813,17.2764267 C8.11827643,17.6757867 7.14395933,18.4027467 6.31647153,19.2201867 C5.39039837,20.3309067 4.43495933,22.2289067 4.43495933,22.2289067 C4.43495933,22.2289067 5.20895933,18.6377867 5.66622763,17.3804267 Z M2.92471545,34.1972267 C2.9058374,34.1774667 2.88695935,34.1577067 2.8680813,34.1379467 C2.84605691,34.1140267 2.82298374,34.0911467 2.80095935,34.0672267 L2.80830081,34.0620267 C2.05947154,33.2123467 1.59276423,32.0693867 1.59276423,30.7953867 C1.59276423,30.0091467 1.86439837,29.1064267 2.08149593,28.6228267 C2.54610569,27.5911467 3.41764227,26.6801067 3.41764227,26.6801067 C3.41764227,26.6801067 3.35891057,27.5609867 3.45749593,28.6571467 C3.485813,28.9067467 3.51203253,29.1553067 3.54664227,29.4111467 C3.6200569,30.0694667 3.73017887,30.7163467 3.83820327,31.3569867 C3.89903253,31.7126667 3.958813,32.0662667 4.0123008,32.4198667 C4.0836179,32.8909867 4.1696179,33.3506667 4.26400813,33.8051467 C4.48739837,34.8149867 4.7653252,35.6449067 4.7653252,35.6449067 C4.7653252,35.6449067 3.69976423,35.0354667 2.92471545,34.1972267 Z M34.6398373,29.2405867 C34.569569,29.8718667 34.4636423,30.4927467 34.3587643,31.1053067 C34.297935,31.4693067 34.236057,31.8301867 34.1815203,32.1900267 C32.7992276,41.4096267 27.0508618,47.6673067 19.8751057,47.7671467 C12.7003984,47.6673067 6.95098373,41.4096267 5.56869107,32.1900267 C5.51415447,31.8281067 5.45227643,31.4630667 5.39039837,31.0969867 C5.28552033,30.4865067 5.18064227,29.8687467 5.10827643,29.2197867 C4.87439837,27.5256267 4.76952033,25.9261067 4.75798373,24.4025067 C4.7925935,23.9449067 4.9205447,23.5725867 5.1795935,23.1035467 C5.979813,21.7401067 7.60122763,19.4094667 9.7313008,18.6450667 C10.9992764,18.1905867 12.248374,18.1229867 13.5708862,18.0522667 C15.5667154,17.9441067 17.6286179,17.8203467 19.8677642,16.3872267 C22.1079593,17.8203467 24.168813,17.9441067 26.1646423,18.0522667 C27.4871545,18.1229867 28.736252,18.1905867 30.0042276,18.6450667 C32.1500325,19.4146667 33.7945203,21.7941867 34.588447,23.1534667 C34.842252,23.6214667 34.9649593,24.0000267 34.99013,24.4753067 C34.9743983,25.9833067 34.8695203,27.5641067 34.6398373,29.2405867 Z M36.644057,34.3792267 C35.8973253,35.1228267 35.0037643,35.6449067 35.0037643,35.6449067 C35.0037643,35.6449067 35.396008,34.3896267 35.6152033,33.0823467 L35.616252,33.0833867 C35.6561057,32.8618667 35.7033007,32.6455467 35.7379107,32.4198667 C35.7903497,32.0693867 35.85013,31.7189067 35.9109593,31.3653067 C36.0200327,30.7225867 36.1301543,30.0725867 36.2014717,29.4309067 C36.2109107,29.3591467 36.2172033,29.2894667 36.2255933,29.2177067 L36.2172033,29.2218667 C36.4017887,27.8792267 36.3199837,26.6801067 36.3199837,26.6801067 C36.3199837,26.6801067 37.012179,27.3914667 37.4683983,28.2650667 C37.923569,29.1397067 38.1742277,29.7678667 38.1742277,30.7953867 C38.1742277,32.2378667 37.5743253,33.5108267 36.644057,34.3792267 Z" id="Fill-8" fill="#1C1C1B"></path>
                </g>
            </g>
        </g>
    </g>
</svg>