<?xml version="1.0" encoding="UTF-8"?>
<svg width="60px" height="60px" viewBox="0 0 60 60" version="1.1" xmlns="http://www.w3.org/2000/svg" xmlns:xlink="http://www.w3.org/1999/xlink">
    <!-- Generator: Sketch 49 (51002) - http://www.bohemiancoding.com/sketch -->
    <title>Bitmap</title>
    <desc>Created with Sketch.</desc>
    <defs>
        <path d="M39.0815,0 C45.105,0 48.116,0 51.3585,1.025 C54.8985,2.3135 57.6865,5.1015 58.975,8.6415 C60,11.8835 60,14.8955 60,20.9185 L60,39.0815 C60,45.105 60,48.116 58.975,51.3585 C57.6865,54.8985 54.8985,57.6865 51.3585,58.9745 C48.116,60 45.105,60 39.0815,60 L20.9185,60 C14.895,60 11.8835,60 8.6415,58.9745 C5.1015,57.6865 2.3135,54.8985 1.025,51.3585 C0,48.116 0,45.105 0,39.0815 L0,20.9185 C0,14.8955 0,11.8835 1.025,8.6415 C2.3135,5.1015 5.1015,2.3135 8.6415,1.025 C11.8835,0 14.895,0 20.9185,0 L39.0815,0 Z" id="path-1"></path>
    </defs>
    <g id="final" stroke="none" stroke-width="1" fill="none" fill-rule="evenodd">
        <g id="Mobile" transform="translate(-40.000000, -1620.000000)">
            <g id="Bitmap" transform="translate(40.000000, 1620.000000)">
                <mask id="mask-2" fill="white">
                    <use xlink:href="#path-1"></use>
                </mask>
                <use id="Mask" fill="#FFD649" fill-rule="nonzero" xlink:href="#path-1"></use>
                <path d="M19,37.0321255 C19,36.4493836 19.5875981,36.0608891 20.1169219,36.2923671 C22.5806251,37.3607272 25.2806624,37.8835761 28.2202714,37.8835761 C32.2509028,37.8835761 34.5818703,36.7698917 34.5818703,34.807994 C34.5818703,33.0597684 33.0440792,32.2147927 29.9199353,32.2147927 L25.5331839,32.2147927 C25.0864151,32.2147927 24.7238202,31.8521977 24.7238202,31.405429 L24.7238202,27.6208442 C24.7238202,27.1740755 25.0864151,26.8114805 25.5331839,26.8114805 L29.9166978,26.8114805 C32.4580999,26.8114805 33.7320384,26.0183041 33.7320384,24.480513 C33.7320384,22.7857054 31.9303947,21.9391109 28.3254887,21.9391109 C25.5542274,21.9391109 23.0565309,22.366455 20.8275433,23.2583738 C20.3095505,23.4688084 19.7429959,23.0803138 19.7429959,22.5169966 L19.7429959,18.6919437 C19.7429959,18.1949944 20.0505541,17.7530818 20.5118914,17.5701656 C23.085668,16.522849 26.2697049,16 29.9717345,16 C33.2043332,16 35.907608,16.6863404 38.081559,18.0638775 C40.2506537,19.4397958 41.3675756,21.1880214 41.3675756,23.2567551 C41.3675756,25.9600299 40.266841,27.7989042 38.0783215,28.7280538 C37.9115926,28.7992778 37.9164488,29.0453244 38.0880339,29.1116922 C40.5776367,30.0602665 42.4262234,32.1144316 42.4262234,35.2304819 C42.4262234,37.7233221 41.2089404,39.7871996 38.7711368,41.4302079 C36.3851326,43.021417 33.1412028,43.8194496 29.220645,43.8194496 C25.4101606,43.8194496 22.3248661,43.2480388 19.7510895,42.1456855 C19.2978458,41.9562944 19.0016187,41.5208567 19.0016187,41.0336197 L19,37.0321255 Z" id="Shape" fill="#221E20" fill-rule="nonzero" mask="url(#mask-2)"></path>
            </g>
        </g>
    </g>
</svg>