<?xml version="1.0" encoding="UTF-8"?>
<svg width="140px" height="40px" viewBox="0 0 140 40" version="1.1" xmlns="http://www.w3.org/2000/svg" xmlns:xlink="http://www.w3.org/1999/xlink">
    <!-- Generator: Sketch 49 (51002) - http://www.bohemiancoding.com/sketch -->
    <title>Symbols/AppBanners/AppStoreSmall</title>
    <desc>Created with Sketch.</desc>
    <defs></defs>
    <g id="final" stroke="none" stroke-width="1" fill="none" fill-rule="evenodd">
        <g id="Desktop" transform="translate(-900.000000, -855.000000)">
            <g id="qlean" transform="translate(60.000000, 660.000000)">
                <g id="info" transform="translate(840.000000, 0.000000)">
                    <g id="Symbols/AppBanners/AppStoreSmall" transform="translate(0.000000, 195.000000)">
                        <g id="AppStore">
                            <rect id="Rectangle-2" fill="#000000" x="0" y="0" width="140" height="40" rx="4"></rect>
                            <g id="_Group_" transform="translate(9.000000, 8.000000)" fill="#FFFFFF" fill-rule="nonzero">
                                <g id="_Group_2">
                                    <g id="_Group_3">
                                        <path d="M15.76888,12.30068 C15.790737,10.6042091 16.6801229,9.03718611 18.12544,8.14862 C17.2095126,6.84051277 15.730392,6.04087835 14.13428,5.99094 C12.45504,5.81468 10.82709,6.99577 9.97138,6.99577 C9.09911,6.99577 7.78161,6.00844 6.36288,6.03763 C4.49620126,6.09793842 2.79813717,7.13352548 1.88996,8.7655 C-0.04404,12.11392 1.39855,17.03497 3.25116,19.74158 C4.17806,21.06693 5.26134,22.54738 6.67879,22.49488 C8.06585,22.43735 8.58389,21.6104 10.25819,21.6104 C11.91695,21.6104 12.40298,22.49488 13.84919,22.4615 C15.33757,22.43734 16.27532,21.13026 17.1697,19.79236 C17.8356761,18.8479997 18.3481437,17.8042759 18.68812,16.69985 C16.9203766,15.9521813 15.7709432,14.2200343 15.76888,12.30068 Z" id="_Path_"></path>
                                        <path d="M13.03725,4.21089 C13.8487766,3.23668191 14.248585,1.98450245 14.15177,0.72027 C12.9119378,0.850490487 11.7666802,1.44304968 10.94419,2.37988 C10.1320187,3.30418903 9.72057463,4.51343268 9.80048,5.74127 C11.0569368,5.75420677 12.2499161,5.19015322 13.03725,4.21089 Z" id="_Path_2"></path>
                                    </g>
                                </g>
                                <g id="Group" transform="translate(25.000000, 9.000000)">
                                    <path d="M8.30227,10.13965 L3.56887,10.13965 L2.43215,13.4961 L0.42727,13.4961 L4.91067,1.0781 L6.99367,1.0781 L11.47707,13.4961 L9.438,13.4961 L8.30227,10.13965 Z M4.0591,8.59082 L7.8111,8.59082 L5.96149,3.14355 L5.90973,3.14355 L4.0591,8.59082 Z" id="Shape"></path>
                                    <path d="M21.15969,8.96973 C21.15969,11.78321 19.65383,13.59082 17.38137,13.59082 C16.2067553,13.6522646 15.1003324,13.0370307 14.53274,12.00682 L14.48974,12.00682 L14.48974,16.4912 L12.63134,16.4912 L12.63134,4.44238 L14.4302,4.44238 L14.4302,5.94824 L14.46438,5.94824 C15.0571883,4.92448792 16.1648043,4.30951884 17.34719,4.34765 C19.645,4.34766 21.15969,6.16406 21.15969,8.96973 Z M19.24953,8.96973 C19.24953,7.13673 18.30226,5.93164 16.85695,5.93164 C15.43703,5.93164 14.48195,7.16211 14.48195,8.96973 C14.48195,10.79395 15.43703,12.01563 16.85695,12.01563 C18.30227,12.01563 19.24953,10.81934 19.24953,8.96973 Z" id="Shape"></path>
                                    <path d="M31.12453,8.96973 C31.12453,11.78321 29.61867,13.59082 27.34621,13.59082 C26.1715953,13.6522646 25.0651724,13.0370307 24.49758,12.00682 L24.45458,12.00682 L24.45458,16.4912 L22.59618,16.4912 L22.59618,4.44238 L24.395,4.44238 L24.395,5.94824 L24.42918,5.94824 C25.0219926,4.92448854 26.1296128,4.30952307 27.312,4.34766 C29.60988,4.34766 31.12453,6.16406 31.12453,8.96973 Z M29.21437,8.96973 C29.21437,7.13673 28.2671,5.93164 26.82179,5.93164 C25.40187,5.93164 24.44679,7.16211 24.44679,8.96973 C24.44679,10.79395 25.40187,12.01563 26.82179,12.01563 C28.26711,12.01563 29.21438,10.81934 29.21438,8.96973 L29.21437,8.96973 Z" id="Shape"></path>
                                    <path d="M37.71047,10.03613 C37.84817,11.26758 39.04447,12.07613 40.67922,12.07613 C42.24563,12.07613 43.37258,11.26754 43.37258,10.15718 C43.37258,9.19331 42.69289,8.61618 41.08352,8.22066 L39.47415,7.83296 C37.19388,7.28218 36.13528,6.21577 36.13528,4.4853 C36.13528,2.34272 38.00247,0.87104 40.65383,0.87104 C43.27783,0.87104 45.07668,2.34272 45.13723,4.4853 L43.26123,4.4853 C43.14893,3.24604 42.12451,2.498 40.62744,2.498 C39.13037,2.498 38.10596,3.25484 38.10596,4.3564 C38.10596,5.23433 38.76026,5.75093 40.36084,6.1464 L41.729,6.48234 C44.27685,7.08488 45.33545,8.10834 45.33545,9.92472 C45.33545,12.24796 43.48486,13.70304 40.5415,13.70304 C37.78759,13.70304 35.92822,12.28214 35.8081,10.03604 L37.71047,10.03613 Z" id="Shape"></path>
                                    <path d="M49.34621,2.2998 L49.34621,4.44238 L51.06789,4.44238 L51.06789,5.91406 L49.34621,5.91406 L49.34621,10.90527 C49.34621,11.68066 49.69094,12.04199 50.44777,12.04199 C50.6521614,12.0384259 50.8562221,12.0240726 51.0591,11.99899 L51.0591,13.46188 C50.7188283,13.5254596 50.3729708,13.5542545 50.02687,13.54782 C48.19387,13.54782 47.47902,12.85934 47.47902,11.10348 L47.47902,5.91406 L46.16262,5.91406 L46.16262,4.44238 L47.479,4.44238 L47.479,2.2998 L49.34621,2.2998 Z" id="Shape"></path>
                                    <path d="M52.065,8.96973 C52.065,6.1211 53.74273,4.33106 56.35895,4.33106 C58.98395,4.33106 60.65387,6.12106 60.65387,8.96973 C60.65387,11.82618 58.99274,13.6084 56.35895,13.6084 C53.72609,13.6084 52.065,11.82617 52.065,8.96973 Z M58.76031,8.96973 C58.76031,7.01563 57.8648,5.86231 56.35894,5.86231 C54.85308,5.86231 53.95855,7.02442 53.95855,8.96973 C53.95855,10.93164 54.85308,12.07618 56.35894,12.07618 C57.8648,12.07618 58.76027,10.93164 58.76027,8.96973 L58.76031,8.96973 Z" id="Shape"></path>
                                    <path d="M62.18606,4.44238 L63.95852,4.44238 L63.95852,5.98338 L64.00152,5.98338 C64.248696,4.99136841 65.1576526,4.30863156 66.17925,4.34764 C66.393414,4.34689223 66.6069872,4.37015075 66.81597,4.41698 L66.81597,6.15526 C66.545601,6.07264332 66.2635596,6.03471129 65.98097,6.04296 C65.4346182,6.02079544 64.9058709,6.23853473 64.5335615,6.63900597 C64.161252,7.03947722 63.9825766,7.58267074 64.04445,8.12596 L64.04445,13.49608 L62.18605,13.49608 L62.18606,4.44238 Z" id="Shape"></path>
                                    <path d="M75.3843,10.83691 C75.1343,12.48046 73.53371,13.60839 71.48586,13.60839 C68.85207,13.60839 67.21731,11.84374 67.21731,9.01269 C67.21731,6.17285 68.86086,4.33105 71.40774,4.33105 C73.91262,4.33105 75.48782,6.05175 75.48782,8.79687 L75.48782,9.43359 L69.09329,9.43359 L69.09329,9.54589 C69.0335874,10.2199216 69.2663316,10.8871194 69.7323199,11.3777699 C70.1983083,11.8684204 70.8526275,12.1352333 71.52884,12.11034 C72.4306823,12.1948396 73.2809431,11.6769777 73.61966,10.8369 L75.3843,10.83691 Z M69.1020624,8.13477 L73.62844,8.13476 C73.6621655,7.52909749 73.4416965,6.93682308 73.0201501,6.50063155 C72.5986036,6.06444001 72.0142008,5.82388041 71.40774,5.83691 C70.7964818,5.83326223 70.2090907,6.07393463 69.7761255,6.50543324 C69.3431603,6.93693186 69.1004963,7.52350292 69.1020624,8.13477 Z" id="Shape"></path>
                                </g>
                                <g id="_Group_4" transform="translate(26.000000, 0.000000)">
                                    <g id="Group">
                                        <path d="M1.7383,3.25342 L2.53615,3.25342 C2.81382221,3.28799816 3.09330496,3.20490489 3.30698387,3.0242427 C3.52066278,2.8435805 3.64907349,2.58180619 3.66115,2.30225 C3.66115,1.75196 3.24709,1.39649 2.54494,1.39649 C2.26065979,1.35676772 1.97239351,1.43363826 1.74563824,1.60963583 C1.51888297,1.7856334 1.37289344,2.04581331 1.34084,2.33106 L0.46484,2.33106 C0.495318307,1.81297064 0.739669244,1.33083047 1.1394703,0.999915635 C1.53927136,0.669000806 2.05858241,0.519058928 2.57324,0.58594 C3.74804,0.58594 4.57524,1.24365 4.57524,2.19043 C4.58091819,2.84404189 4.12917688,3.41278169 3.49124,3.55518 L3.49124,3.62549 C4.25526157,3.65937791 4.84834429,4.3041741 4.81839,5.06836 C4.76352528,5.60145535 4.49630037,6.08999884 4.07700973,6.42375946 C3.6577191,6.75752009 3.12169083,6.90837626 2.58987,6.84229 C2.05684323,6.91496094 1.51716162,6.76799216 1.09458358,6.43508616 C0.672005532,6.10218016 0.402785384,5.61189804 0.34866,5.07667 L1.23831,5.07667 C1.29202,5.64747 1.81644,6.01567 2.58987,6.01567 C3.3633,6.01567 3.86819,5.6021 3.86819,5.01909 C3.86819,4.42778 3.3926,4.06352 2.56155,4.06352 L1.7383,4.06352 L1.7383,3.25342 Z" id="Shape"></path>
                                        <path d="M5.82912,5.42432 C5.82912,4.61377 6.43361,4.14649 7.50392,4.08008 L8.72365,4.00977 L8.72365,3.6211 C8.72365,3.14551 8.41017,2.87696 7.80178,2.87696 C7.30569,2.87696 6.96291,3.05909 6.8633,3.37745 L6.00295,3.37745 C6.09377,2.60401 6.82229,2.10792 7.84377,2.10792 C8.97268,2.10792 9.6094,2.66992 9.6094,3.6211 L9.6094,6.69776 L8.75295,6.69776 L8.75295,6.06495 L8.68264,6.06495 C8.3920886,6.52707633 7.87539364,6.79716323 7.3301,6.77195 C6.94783612,6.81171181 6.56659115,6.68791066 6.28061581,6.43115244 C5.99464047,6.17439423 5.83062608,5.80864331 5.82912,5.42432 Z M8.72365,5.03955 L8.72365,4.66309 L7.624,4.7334 C7.00388,4.7749 6.72263,4.98584 6.72263,5.38281 C6.72263,5.78808 7.07419,6.02392 7.55763,6.02392 C7.84382257,6.0529014 8.12952343,5.96449186 8.3493264,5.77893119 C8.56912937,5.59337052 8.70421218,5.32654874 8.72365,5.03955 Z" id="Shape"></path>
                                        <polygon id="Shape" points="11.96779 2.94287 11.96779 6.69775 11.07912 6.69775 11.07912 2.19482 14.044 2.19482 14.044 2.94282"></polygon>
                                        <path d="M19.42971,4.44434 C19.42971,5.875 18.70608,6.77198 17.56936,6.77198 C16.9996446,6.81089115 16.459076,6.51584366 16.18362,6.01563 L16.1133,6.01563 L16.1133,8.19483 L15.22463,8.19483 L15.22463,2.19483 L16.0801,2.19483 L16.0801,2.939 L16.14651,2.939 C16.4265308,2.42200531 16.9727896,2.10567926 17.56057,2.12015 C18.70607,2.12012 19.42971,3.01318 19.42971,4.44434 Z M18.51565,4.44434 C18.51565,3.49317 18.06545,2.91846 17.31253,2.91846 C16.56453,2.91846 16.09671,3.50537 16.09671,4.44825 C16.09671,5.38673 16.56448,5.97413 17.30862,5.97413 C18.06545,5.97412 18.51565,5.39941 18.51565,4.44434 Z" id="Shape"></path>
                                        <path d="M20.6133,8.31055 L20.6133,7.54541 C20.7094676,7.55763024 20.8063661,7.56317684 20.9033,7.56201 C21.2953654,7.59105089 21.6463959,7.32019997 21.71775,6.93359 L21.78416,6.71435 L20.15428,2.19482 L21.12205,2.19482 L22.251,5.77148 L22.32131,5.77148 L23.44631,2.19482 L24.38869,2.19482 L22.71,6.88379 C22.32523,7.97949 21.89945,8.33106 20.98148,8.33106 C20.90725,8.33105 20.69631,8.32275 20.6133,8.31055 Z" id="Shape"></path>
                                        <path d="M25.08107,5.41992 L25.96584,5.41992 C26.05275,5.81692 26.42484,6.02392 26.94533,6.02392 C27.53713,6.02392 27.90041,5.76318 27.90041,5.35792 C27.90041,4.92384 27.57424,4.71681 26.94533,4.71681 L26.2715,4.71681 L26.2715,4.02638 L26.93361,4.02638 C27.47072,4.02638 27.74416,3.81984 27.74416,3.44338 C27.74416,3.11281 27.47951,2.86038 26.93361,2.86038 C26.43654,2.86038 26.07326,3.07132 26.01561,3.42679 L25.1592,3.42679 C25.2923987,2.57705761 26.0815556,1.99050793 26.93361,2.10794 C28.00392,2.10794 28.61623,2.59183 28.61623,3.35257 C28.6265285,3.78914212 28.3301463,4.17346269 27.90529,4.27445 L27.90529,4.34476 C28.4133317,4.41029119 28.7918955,4.84572159 28.78615,5.35794 C28.78615,6.21394 28.05763,6.7803 26.94533,6.7803 C25.96193,6.78027 25.16311,6.32959 25.08107,5.41992 Z" id="Shape"></path>
                                        <polygon id="Shape" points="30.06594 6.69775 30.06594 2.19482 30.9468 2.19482 30.9468 5.292 31.01711 5.292 33.09231 2.19483 33.97317 2.19483 33.97317 6.69776 33.09231 6.69776 33.09231 3.584 33.0259 3.584 30.9468 6.69777"></polygon>
                                        <polygon id="Shape" points="38.8257 2.94287 37.4077 2.94287 37.4077 6.69775 36.51805 6.69775 36.51805 2.94287 35.10005 2.94287 35.10005 2.19487 38.8257 2.19487"></polygon>
                                        <path d="M43.61281,5.48193 C43.3628947,6.33122407 42.5408329,6.8798113 41.66066,6.78466 C41.0602219,6.80051066 40.4831675,6.55162983 40.0826039,6.10405194 C39.6820404,5.65647405 39.4984632,5.05544753 39.58058,4.46044 C39.5006474,3.86378048 39.6835382,3.26179373 40.0818708,2.81043696 C40.4802034,2.35908018 41.054782,2.10276675 41.65675,2.1079 C42.90968,2.1079 43.66652,2.9639 43.66652,4.3779 L43.66652,4.688 L40.48684,4.688 L40.48684,4.7378 C40.4583651,5.07201959 40.5723691,5.40272069 40.8007524,5.64839244 C41.0291357,5.8940642 41.3506541,6.03185416 41.68606,6.0278 C42.1205273,6.07975005 42.5433366,5.86410072 42.75637,5.4819 L43.61281,5.48193 Z M40.48681,4.03076 L42.76025,4.03076 C42.7829535,3.72531709 42.6756519,3.42448388 42.4647735,3.20235527 C42.2538951,2.98022667 41.9590398,2.85744817 41.65283,2.86426 C41.342225,2.8600334 41.0431109,2.98159116 40.8235077,3.20129039 C40.6039045,3.42098963 40.4824776,3.72015691 40.48684,4.03076 L40.48681,4.03076 Z" id="Shape"></path>
                                        <path d="M47.38039,2.19482 L49.41066,2.19482 C50.29152,2.19482 50.80812,2.64111 50.80812,3.33982 C50.8109425,3.79673069 50.4937416,4.19333399 50.04738,4.29099 L50.04738,4.3613 C50.5935235,4.39580552 51.0168538,4.85219715 51.01027,5.39939 C51.01027,6.18503 50.41945,6.69773 49.43117,6.69773 L47.38039,6.69773 L47.38039,2.19482 Z M48.26125,2.87694 L48.26125,4.04295 L49.14211,4.04295 C49.67922,4.04295 49.93606,3.83641 49.93606,3.45555 C49.93606,3.10448 49.71243,2.87694 49.24075,2.87694 L48.26125,2.87694 Z M48.26125,4.69629 L48.26125,6.01563 L49.315,6.01563 C49.84039,6.01563 50.12164,5.7837 50.12164,5.35792 C50.12164,4.90724 49.80328,4.6963 49.20364,4.6963 L48.26125,4.69629 Z" id="Shape"></path>
                                    </g>
                                </g>
                            </g>
                        </g>
                    </g>
                </g>
            </g>
        </g>
    </g>
</svg>