<?xml version="1.0" encoding="UTF-8"?>
<svg width="140px" height="40px" viewBox="0 0 140 40" version="1.1" xmlns="http://www.w3.org/2000/svg" xmlns:xlink="http://www.w3.org/1999/xlink">
    <!-- Generator: Sketch 49 (51002) - http://www.bohemiancoding.com/sketch -->
    <title>Group 3</title>
    <desc>Created with Sketch.</desc>
    <defs>
        <linearGradient x1="91.488428%" y1="4.9481245%" x2="-38.3517333%" y2="71.9074222%" id="linearGradient-1">
            <stop stop-color="#00A0FF" offset="0%"></stop>
            <stop stop-color="#00A1FF" offset="1%"></stop>
            <stop stop-color="#00BEFF" offset="26%"></stop>
            <stop stop-color="#00D2FF" offset="51%"></stop>
            <stop stop-color="#00DFFF" offset="76%"></stop>
            <stop stop-color="#00E3FF" offset="100%"></stop>
        </linearGradient>
        <linearGradient x1="107.684729%" y1="50%" x2="-130.640394%" y2="50%" id="linearGradient-2">
            <stop stop-color="#FFE000" offset="0%"></stop>
            <stop stop-color="#FFBD00" offset="41%"></stop>
            <stop stop-color="#FFA500" offset="78%"></stop>
            <stop stop-color="#FF9C00" offset="100%"></stop>
        </linearGradient>
        <linearGradient x1="86.219293%" y1="17.8768889%" x2="-50.1497903%" y2="194.702638%" id="linearGradient-3">
            <stop stop-color="#FF3A44" offset="0%"></stop>
            <stop stop-color="#C31162" offset="100%"></stop>
        </linearGradient>
        <linearGradient x1="-18.7537448%" y1="-54.0521474%" x2="42.1210306%" y2="24.9170664%" id="linearGradient-4">
            <stop stop-color="#32A071" offset="0%"></stop>
            <stop stop-color="#2DA771" offset="7%"></stop>
            <stop stop-color="#15CF74" offset="48%"></stop>
            <stop stop-color="#06E775" offset="80%"></stop>
            <stop stop-color="#00F076" offset="100%"></stop>
        </linearGradient>
    </defs>
    <g id="Page-1" stroke="none" stroke-width="1" fill="none" fill-rule="evenodd">
        <g id="Group-3">
            <path d="M4,0 L136,0 C138.209139,-4.05812251e-16 140,1.790861 140,4 L140,36 C140,38.209139 138.209139,40 136,40 L4,40 C1.790861,40 2.705415e-16,38.209139 0,36 L0,4 C-2.705415e-16,1.790861 1.790861,4.05812251e-16 4,0 Z" id="Rectangle" fill="#000000"></path>
            <g id="google" transform="translate(9.000000, 6.000000)" fill-rule="nonzero">
                <path d="M38.42,4.24 C38.4543536,4.98123105 38.1832676,5.7041269 37.67,6.24 C37.0964498,6.83580321 36.2964838,7.1594258 35.47,7.13 C34.2023403,7.12007876 33.0641482,6.35121618 32.5816918,5.17891267 C32.0992355,4.00660917 32.3665355,2.65932246 33.26,1.76 C33.840533,1.16732597 34.6405789,0.841515426 35.47,0.86 C35.8927576,0.858591432 36.3113359,0.94366832 36.7,1.11 C37.0618545,1.25595356 37.3839841,1.48555656 37.64,1.78 L37.11,2.31 C36.7053468,1.82867645 36.0978848,1.56568987 35.47,1.6 C34.8388494,1.59690387 34.2336793,1.85108766 33.794036,2.30393914 C33.3543927,2.75679062 33.1182283,3.36921739 33.14,4 C33.1266019,4.95318969 33.6879765,5.82083951 34.5629333,6.1992583 C35.43789,6.5776771 36.4545926,6.39254565 37.14,5.73 C37.4477095,5.39653661 37.625183,4.96350129 37.64,4.51 L35.47,4.51 L35.47,3.79 L38.38,3.79 C38.4066731,3.93851412 38.4200594,4.08910965 38.42,4.24 Z M43,1.74 L40.3,1.74 L40.3,3.64 L42.76,3.64 L42.76,4.36 L40.3,4.36 L40.3,6.26 L43,6.26 L43,7 L39.5,7 L39.5,1 L43,1 L43,1.74 Z M46.28,7 L45.51,7 L45.51,1.74 L43.83,1.74 L43.83,1 L48,1 L48,1.74 L46.28,1.74 L46.28,7 Z M50.94,7 L50.94,1 L51.71,1 L51.71,7 L50.94,7 Z M55.13,7 L54.36,7 L54.36,1.74 L52.68,1.74 L52.68,1 L56.8,1 L56.8,1.74 L55.13,1.74 L55.13,7 Z M64.61,6.22 C63.3929898,7.43022788 61.4270102,7.43022788 60.21,6.22 C59.0302689,4.97123387 59.0302689,3.01876613 60.21,1.77 C60.7919984,1.18374669 61.5839158,0.854032967 62.41,0.854032967 C63.2360842,0.854032967 64.0280016,1.18374669 64.61,1.77 C65.7947655,3.01675984 65.7947655,4.97324016 64.61,6.22 Z M60.78,5.72 C61.6813239,6.61756507 63.1386761,6.61756507 64.04,5.72 C64.9251983,4.74417114 64.9251983,3.25582886 64.04,2.28 C63.1386761,1.38243493 61.6813239,1.38243493 60.78,2.28 C59.8948017,3.25582886 59.8948017,4.74417114 60.78,5.72 Z M66.58,7 L66.58,1 L67.52,1 L70.44,5.67 L70.44,1 L71.21,1 L71.21,7 L70.41,7 L67.36,2.11 L67.36,7 L66.58,7 Z" id="Shape" stroke="#FFFFFF" stroke-width="0.2" fill="#FFFFFF"></path>
                <path d="M59.14,15.75 C56.795425,15.7610334 54.9026739,17.6686811 54.9100209,20.0132706 C54.9173678,22.3578601 56.8220372,24.2536083 59.1666353,24.2499478 C61.5112334,24.2462873 63.409974,22.344601 63.41,20 C63.426473,18.8643738 62.9812316,17.7707097 62.1762551,16.9695037 C61.3712787,16.1682976 60.2755364,15.7281956 59.14,15.75 Z M59.14,22.58 C58.0832273,22.6539053 57.088673,22.0743135 56.6320213,21.1184371 C56.1753697,20.1625607 56.3494358,19.0246828 57.0709659,18.249038 C57.7924959,17.4733932 58.9148379,17.2176324 59.9011878,17.6040831 C60.8875378,17.9905338 61.5374189,18.9406494 61.54,20 C61.5725428,20.6626719 61.3360327,21.3103928 60.8841403,21.7961771 C60.432248,22.2819613 59.8032921,22.5646164 59.14,22.58 Z M49.83,15.75 C47.4840995,15.7555198 45.5863275,17.6607469 45.5900052,20.006651 C45.5936829,22.3525551 47.4974192,24.2518225 49.8433255,24.2499869 C52.1892318,24.2481513 54.0899935,22.345907 54.09,20 C54.106473,18.8643738 53.6612316,17.7707097 52.8562551,16.9695037 C52.0512787,16.1682976 50.9555364,15.7281956 49.82,15.75 L49.83,15.75 Z M49.83,22.58 C48.7726757,22.658073 47.7752215,22.0813713 47.3153517,21.1260966 C46.8554819,20.1708219 47.0268227,19.0314615 47.7473134,18.2536934 C48.467804,17.4759253 49.5907575,17.2180976 50.5783538,17.6036927 C51.5659501,17.9892877 52.2171215,18.9398011 52.22,20 C52.2525428,20.6626719 52.0160327,21.3103928 51.5641403,21.7961771 C51.112248,22.2819613 50.4832921,22.5646164 49.82,22.58 L49.83,22.58 Z M38.74,17.06 L38.74,18.86 L43.06,18.86 C42.9922634,19.7078038 42.6398446,20.5077945 42.06,21.13 C41.1860229,22.0202246 39.9765432,22.499658 38.73,22.45 C36.0790332,22.45 33.93,20.3009668 33.93,17.65 C33.93,14.9990332 36.0790332,12.85 38.73,12.85 C39.9477957,12.8301388 41.123762,13.2940521 42,14.14 L43.27,12.87 C42.0749196,11.6598581 40.4407184,10.9852541 38.74,11 C36.3189608,10.905779 34.0403936,12.1436718 32.801854,14.2260571 C31.5633145,16.3084423 31.5633145,18.9015577 32.801854,20.9839429 C34.0403936,23.0663282 36.3189608,24.304221 38.74,24.21 C40.471765,24.2882543 42.1527407,23.6136762 43.35,22.36 C44.3976757,21.2089216 44.9570431,19.6957612 44.91,18.14 C44.9132269,17.7609882 44.8797372,17.3825548 44.81,17.01 L38.74,17.06 Z M84.05,18.46 C83.5160796,16.8892101 82.0679278,15.811053 80.41,15.75 C79.3043635,15.7478383 78.2471451,16.2034076 77.4893794,17.0085336 C76.7316138,17.8136596 76.3408955,18.8965231 76.41,20 C76.385441,21.1292961 76.8211644,22.2200283 77.6170522,23.0215741 C78.4129399,23.8231198 79.5005582,24.2665588 80.63,24.25 C82.0508585,24.257659 83.3806434,23.5514455 84.17,22.37 L82.72,21.37 C82.279746,22.1039422 81.4858563,22.552167 80.63,22.55 C79.7435914,22.5837851 78.9266413,22.0721998 78.57,21.26 L84.26,18.91 L84.05,18.46 Z M78.25,19.88 C78.2090519,19.2551643 78.4213257,18.640145 78.8389667,18.1735911 C79.2566076,17.7070373 79.8444602,17.4282216 80.47,17.4 C81.1293698,17.3565516 81.7510664,17.7106826 82.05,18.3 L78.25,19.88 Z M73.63,24 L75.5,24 L75.5,11.5 L73.63,11.5 L73.63,24 Z M70.57,16.7 L70.5,16.7 C69.9299621,16.0626768 69.1150572,15.69888 68.26,15.7 C65.9901469,15.8100717 64.2063371,17.6824796 64.2063371,19.955 C64.2063371,22.2275204 65.9901469,24.0999283 68.26,24.21 C69.117829,24.2244237 69.9380159,23.8582688 70.5,23.21 L70.56,23.21 L70.56,23.82 C70.56,25.45 69.69,26.32 68.29,26.32 C67.336303,26.2976774 66.4907281,25.7010334 66.15,24.81 L64.52,25.49 C65.1476816,27.016811 66.6392308,28.0098583 68.29,28 C70.48,28 72.29,26.71 72.29,23.57 L72.29,16 L70.57,16 L70.57,16.7 Z M68.43,22.58 C67.0928876,22.4621598 66.0673763,21.342295 66.0673763,20 C66.0673763,18.657705 67.0928876,17.5378402 68.43,17.42 C69.0761196,17.4531575 69.6814859,17.7457702 70.1088498,18.2314965 C70.5362137,18.7172228 70.749373,19.3549169 70.7,20 C70.7551348,20.6480494 70.5426575,21.2904311 70.1119703,21.7777877 C69.6812831,22.2651443 69.0699104,22.5550138 68.42,22.58 L68.43,22.58 Z M92.81,11.5 L88.34,11.5 L88.34,24 L90.21,24 L90.21,19.26 L92.82,19.26 C94.2726839,19.3643638 95.661974,18.648509 96.4201301,17.404973 C97.1782862,16.161437 97.1782862,14.598563 96.4201301,13.355027 C95.661974,12.111491 94.2726839,11.3956362 92.82,11.5 L92.81,11.5 Z M92.81,17.5 L90.2,17.5 L90.2,13.24 L92.85,13.24 C94.0346508,13.24 94.995,14.2003492 94.995,15.385 C94.995,16.5696508 94.0346508,17.53 92.85,17.53 L92.81,17.5 Z M104.34,15.7 C102.948713,15.6168389 101.640687,16.367088 101.01,17.61 L102.67,18.3 C103.004406,17.6836682 103.671125,17.3228556 104.37,17.38 C104.849528,17.3239946 105.331454,17.4629701 105.707528,17.7657102 C106.083603,18.0684503 106.322299,18.5095749 106.37,18.99 L106.37,19.12 C105.769393,18.8019991 105.099592,18.6371252 104.42,18.64 C102.63,18.64 100.82,19.64 100.82,21.45 C100.855688,22.2297088 101.20524,22.9618295 101.789131,23.4797974 C102.373022,23.9977652 103.141598,24.2575326 103.92,24.2 C104.879229,24.2688831 105.799569,23.8087132 106.32,23 L106.38,23 L106.38,24 L108.18,24 L108.18,19.19 C108.18,17 106.52,15.73 104.39,15.73 L104.34,15.7 Z M104.11,22.55 C103.5,22.55 102.65,22.24 102.65,21.49 C102.65,20.49 103.71,20.16 104.65,20.16 C105.244042,20.1453419 105.831131,20.2903874 106.35,20.58 C106.220696,21.699415 105.286524,22.5525405 104.16,22.58 L104.11,22.55 Z M114.74,16 L112.6,21.42 L112.54,21.42 L110.32,16 L108.32,16 L111.65,23.58 L109.75,27.79 L111.7,27.79 L116.82,16 L114.74,16 Z M97.93,24 L99.8,24 L99.8,11.5 L97.93,11.5 L97.93,24 Z" id="Shape" fill="#FFFFFF"></path>
                <path d="M1.44,1.54 C1.11406496,1.93110834 0.94955365,2.43179492 0.98,2.94 L0.98,25.06 C0.94955365,25.5682051 1.11406496,26.0688917 1.44,26.46 L1.51,26.53 L13.9,14.15 L13.9,13.86 L1.51,1.47 L1.44,1.54 Z" id="Shape" fill="url(#linearGradient-1)"></path>
                <path d="M18,18.28 L13.9,14.15 L13.9,13.86 L18,9.72 L18.09,9.77 L23,12.56 C24.4,13.35 24.4,14.65 23,15.45 L18.11,18.23 L18,18.28 Z" id="Shape" fill="url(#linearGradient-2)"></path>
                <path d="M18.12,18.22 L13.9,14 L1.44,26.46 C2.02871773,26.9775224 2.90242896,27.0027256 3.52,26.52 L18.13,18.22" id="Shape" fill="url(#linearGradient-3)"></path>
                <path d="M18.12,9.78 L3.51,1.48 C2.89242896,0.997274391 2.01871773,1.0224776 1.43,1.54 L13.9,14 L18.12,9.78 Z" id="Shape" fill="url(#linearGradient-4)"></path>
                <path d="M18,18.13 L3.51,26.38 C2.91703854,26.8233364 2.10296146,26.8233364 1.51,26.38 L1.44,26.45 L1.51,26.52 C2.10184579,26.9666792 2.91815421,26.9666792 3.51,26.52 L18.12,18.22 L18,18.13 Z" id="Shape" fill="#000000" opacity="0.2"></path>
                <path d="M1.44,26.32 C1.11406496,25.9288917 0.94955365,25.4282051 0.98,24.92 L0.98,25.07 C0.94955365,25.5782051 1.11406496,26.0788917 1.44,26.47 L1.51,26.4 L1.44,26.32 Z M23,15.3 L18,18.13 L18.09,18.22 L23,15.44 C23.5670701,15.1736132 23.9484684,14.6243997 24,14 C23.8860295,14.5648379 23.516706,15.0449585 23,15.3 Z" id="Shape" fill="#000000" opacity="0.12"></path>
                <path d="M3.51,1.62 L23,12.7 C23.516706,12.9550415 23.8860295,13.4351621 24,14 C23.9484684,13.3756003 23.5670701,12.8263868 23,12.56 L3.51,1.48 C2.11,0.69 0.97,1.35 0.97,2.95 L0.97,3.1 C1,1.49 2.12,0.83 3.51,1.62 Z" id="Shape" fill="#FFFFFF" opacity="0.25"></path>
            </g>
        </g>
    </g>
</svg>