<?xml version="1.0" encoding="UTF-8"?>
<svg width="140px" height="40px" viewBox="0 0 140 40" version="1.1" xmlns="http://www.w3.org/2000/svg" xmlns:xlink="http://www.w3.org/1999/xlink">
    <!-- Generator: Sketch 49 (51002) - http://www.bohemiancoding.com/sketch -->
    <title>Symbols/AppBanners/GooglePlaySmall</title>
    <desc>Created with Sketch.</desc>
    <defs>
        <linearGradient x1="91.6223077%" y1="4.572%" x2="-37.4730769%" y2="71.702%" id="linearGradient-1">
            <stop stop-color="#00A0FF" offset="0%"></stop>
            <stop stop-color="#00A1FF" offset="0.657445%"></stop>
            <stop stop-color="#00BEFF" offset="26.01%"></stop>
            <stop stop-color="#00D2FF" offset="51.22%"></stop>
            <stop stop-color="#00DFFF" offset="76.04%"></stop>
            <stop stop-color="#00E3FF" offset="100%"></stop>
        </linearGradient>
        <linearGradient x1="107.838424%" y1="49.2238095%" x2="-130.55468%" y2="49.2238095%" id="linearGradient-2">
            <stop stop-color="#FFE000" offset="0%"></stop>
            <stop stop-color="#FFBD00" offset="40.87%"></stop>
            <stop stop-color="#FFA500" offset="77.54%"></stop>
            <stop stop-color="#FF9C00" offset="100%"></stop>
        </linearGradient>
        <linearGradient x1="86.4562874%" y1="17.4327901%" x2="-49.8209581%" y2="195.391284%" id="linearGradient-3">
            <stop stop-color="#FF3A44" offset="0%"></stop>
            <stop stop-color="#C31162" offset="100%"></stop>
        </linearGradient>
        <linearGradient x1="-18.511976%" y1="-53.8473394%" x2="42.3419162%" y2="24.756697%" id="linearGradient-4">
            <stop stop-color="#32A071" offset="0%"></stop>
            <stop stop-color="#2DA771" offset="6.85%"></stop>
            <stop stop-color="#15CF74" offset="47.62%"></stop>
            <stop stop-color="#06E775" offset="80.09%"></stop>
            <stop stop-color="#00F076" offset="100%"></stop>
        </linearGradient>
    </defs>
    <g id="final" stroke="none" stroke-width="1" fill="none" fill-rule="evenodd">
        <g id="Desktop" transform="translate(-900.000000, -905.000000)">
            <g id="qlean" transform="translate(60.000000, 660.000000)">
                <g id="info" transform="translate(840.000000, 0.000000)">
                    <g id="Symbols/AppBanners/GooglePlaySmall" transform="translate(0.000000, 245.000000)">
                        <g id="Google-Play">
                            <rect id="Rectangle-2" fill="#000000" x="0" y="0" width="140" height="40" rx="4"></rect>
                            <g id="Group-2" transform="translate(10.000000, 6.000000)" fill-rule="nonzero">
                                <path d="M58.7,15.6 C56.3,15.6 54.4,17.4 54.4,19.9 C54.4,22.3 56.3,24.2 58.7,24.2 C61.1,24.2 63,22.4 63,19.9 C63,17.4 61.1,15.6 58.7,15.6 Z M58.7,22.4 C57.4,22.4 56.3,21.3 56.3,19.8 C56.3,18.3 57.4,17.2 58.7,17.2 C60,17.2 61.1,18.2 61.1,19.8 C61.1,21.4 60,22.4 58.7,22.4 Z M49.4,15.6 C47,15.6 45.1,17.4 45.1,19.9 C45.1,22.3 47,24.2 49.4,24.2 C51.8,24.2 53.7,22.4 53.7,19.9 C53.7,17.4 51.8,15.6 49.4,15.6 Z M49.4,22.4 C48.1,22.4 47,21.3 47,19.8 C47,18.3 48.1,17.2 49.4,17.2 C50.7,17.2 51.8,18.2 51.8,19.8 C51.8,21.4 50.7,22.4 49.4,22.4 Z M38.4,16.9 L38.4,18.7 L42.7,18.7 C42.6,19.7 42.2,20.5 41.7,21 C41.1,21.6 40.1,22.3 38.4,22.3 C35.7,22.3 33.7,20.2 33.7,17.5 C33.7,14.8 35.8,12.7 38.4,12.7 C39.8,12.7 40.9,13.3 41.7,14 L43,12.7 C41.9,11.7 40.5,10.9 38.5,10.9 C34.9,10.9 31.8,13.9 31.8,17.5 C31.8,21.1 34.9,24.1 38.5,24.1 C40.5,24.1 41.9,23.5 43.1,22.2 C44.3,21 44.7,19.3 44.7,18 C44.7,17.6 44.7,17.2 44.6,16.9 L38.4,16.9 Z M83.7,18.3 C83.3,17.3 82.3,15.6 80.1,15.6 C77.9,15.6 76.1,17.3 76.1,19.9 C76.1,22.3 77.9,24.2 80.3,24.2 C82.2,24.2 83.4,23 83.8,22.3 L82.4,21.3 C81.9,22 81.3,22.5 80.3,22.5 C79.3,22.5 78.7,22.1 78.2,21.2 L83.9,18.8 L83.7,18.3 Z M77.9,19.7 C77.9,18.1 79.2,17.2 80.1,17.2 C80.8,17.2 81.5,17.6 81.7,18.1 L77.9,19.7 Z M73.2,23.8 L75.1,23.8 L75.1,11.3 L73.2,11.3 L73.2,23.8 Z M70.2,16.5 C69.7,16 68.9,15.5 67.9,15.5 C65.8,15.5 63.8,17.4 63.8,19.8 C63.8,22.2 65.7,24 67.9,24 C68.9,24 69.7,23.5 70.1,23 L70.2,23 L70.2,23.6 C70.2,25.2 69.3,26.1 67.9,26.1 C66.8,26.1 66,25.3 65.8,24.6 L64.2,25.3 C64.7,26.4 65.9,27.8 68,27.8 C70.2,27.8 72,26.5 72,23.4 L72,15.8 L70.2,15.8 L70.2,16.5 Z M68,22.4 C66.7,22.4 65.6,21.3 65.6,19.8 C65.6,18.3 66.7,17.2 68,17.2 C69.3,17.2 70.3,18.3 70.3,19.8 C70.3,21.3 69.3,22.4 68,22.4 Z M92.4,11.3 L87.9,11.3 L87.9,23.8 L89.8,23.8 L89.8,19.1 L92.4,19.1 C94.5,19.1 96.5,17.6 96.5,15.2 C96.5,12.8 94.5,11.3 92.4,11.3 Z M92.5,17.4 L89.8,17.4 L89.8,13.1 L92.5,13.1 C93.9,13.1 94.7,14.3 94.7,15.2 C94.7,16.2 93.9,17.4 92.5,17.4 Z M104,15.6 C102.6,15.6 101.2,16.2 100.7,17.5 L102.4,18.2 C102.8,17.5 103.4,17.3 104.1,17.3 C105.1,17.3 106,17.9 106.1,18.9 L106.1,19 C105.8,18.8 105,18.5 104.2,18.5 C102.4,18.5 100.6,19.5 100.6,21.3 C100.6,23 102.1,24.1 103.7,24.1 C105,24.1 105.6,23.5 106.1,22.9 L106.2,22.9 L106.2,23.9 L108,23.9 L108,19 C107.8,16.8 106.1,15.6 104,15.6 Z M103.8,22.4 C103.2,22.4 102.3,22.1 102.3,21.3 C102.3,20.3 103.4,20 104.3,20 C105.1,20 105.5,20.2 106,20.4 C105.8,21.6 104.8,22.4 103.8,22.4 Z M114.4,15.8 L112.3,21.2 L112.2,21.2 L110,15.8 L108,15.8 L111.3,23.4 L109.4,27.6 L111.3,27.6 L116.4,15.8 L114.4,15.8 Z M97.5,23.8 L99.4,23.8 L99.4,11.3 L97.5,11.3 L97.5,23.8 Z" id="Shape" fill="#FFFFFF"></path>
                                <g id="Group">
                                    <path d="M1,1.4 C0.7,1.7 0.5,2.2 0.5,2.8 L0.5,24.9 C0.5,25.5 0.7,26 1,26.3 L1.1,26.4 L13.5,14 L13.5,13.9 L13.5,13.8 L1,1.4 Z" id="Shape" fill="url(#linearGradient-1)"></path>
                                    <path d="M17.6,18.1 L13.5,14 L13.5,13.9 L13.5,13.8 L17.6,9.7 L17.7,9.8 L22.6,12.6 C24,13.4 24,14.7 22.6,15.5 L17.6,18.1 Z" id="Shape" fill="url(#linearGradient-2)"></path>
                                    <path d="M17.7,18.1 L13.5,13.9 L1,26.3 C1.5,26.8 2.2,26.8 3.1,26.4 L17.7,18.1" id="Shape" fill="url(#linearGradient-3)"></path>
                                    <path d="M17.7,9.6 L3.1,1.3 C2.2,0.8 1.5,0.9 1,1.4 L13.5,13.9 L17.7,9.6 Z" id="Shape" fill="url(#linearGradient-4)"></path>
                                    <g transform="translate(0.000000, 18.000000)" fill="#000000" id="Shape">
                                        <path d="M17.6,0 L3.1,8.2 C2.3,8.7 1.6,8.6 1.1,8.2 L1,8.3 L1.1,8.4 C1.6,8.8 2.3,8.9 3.1,8.4 L17.6,0 Z" opacity="0.2"></path>
                                        <path d="M1,8.2 C0.7,7.9 0.5,7.4 0.5,6.8 L0.5,6.9 C0.5,7.5 0.7,8 1,8.3 L1,8.2 Z" opacity="0.12"></path>
                                    </g>
                                    <path d="M22.6,15.1 L17.6,17.9 L17.7,18 L22.6,15.2 C23.3,14.8 23.6,14.3 23.6,13.8 C23.6,14.3 23.3,14.8 22.6,15.1 Z" id="Shape" fill="#000000" opacity="0.12"></path>
                                    <path d="M3.1,1.5 L22.6,12.6 C23.2,13 23.6,13.4 23.6,13.9 C23.6,13.4 23.3,12.9 22.6,12.5 L3.1,1.3 C1.7,0.5 0.6,1.2 0.6,2.8 L0.6,2.9 C0.6,1.3 1.7,0.7 3.1,1.5 Z" id="Shape" fill="#FFFFFF" opacity="0.25"></path>
                                </g>
                                <g id="Group" transform="translate(32.000000, 0.000000)" fill="#FFFFFF" stroke="#FFFFFF" stroke-width="0.2">
                                    <path d="M0.7,8.1 L0,8.1 L0,6.1 L0.6,6.1 C1.1,5.7 1.4,4.9 1.4,3.8 L1.4,0.8 L5.4,0.8 L5.4,6.1 L6,6.1 L6,8.1 L5.3,8.1 L5.3,6.8 L0.7,6.8 L0.7,8.1 Z M2.1,3.8 C2.1,4.7 1.9,5.5 1.5,6.1 L4.5,6.1 L4.5,1.6 L2,1.6 L2,3.8 L2.1,3.8 Z" id="Shape"></path>
                                    <path d="M12,6.1 C11.4,6.7 10.7,7 9.8,7 C8.9,7 8.2,6.7 7.6,6.1 C7,5.5 6.7,4.8 6.7,3.9 C6.7,3 7,2.3 7.6,1.7 C8.2,1.1 8.9,0.8 9.8,0.8 C10.7,0.8 11.4,1.1 12,1.7 C12.6,2.3 12.9,3 12.9,3.9 C12.9,4.7 12.6,5.5 12,6.1 Z M8.2,5.6 C8.6,6 9.2,6.3 9.8,6.3 C10.4,6.3 11,6.1 11.4,5.6 C11.8,5.2 12.1,4.6 12.1,3.9 C12.1,3.2 11.9,2.6 11.4,2.2 C11,1.8 10.4,1.5 9.8,1.5 C9.2,1.5 8.6,1.7 8.2,2.2 C7.8,2.6 7.5,3.2 7.5,3.9 C7.5,4.6 7.8,5.1 8.2,5.6 Z" id="Shape"></path>
                                    <path d="M16.8,7 C15.9,7 15.2,6.7 14.6,6.1 C14,5.5 13.7,4.8 13.7,3.9 C13.7,3 14,2.3 14.6,1.7 C15.2,1.1 15.9,0.8 16.8,0.8 C17.7,0.8 18.4,1.1 19,1.8 L18.5,2.3 C18.1,1.8 17.5,1.5 16.8,1.5 C16.1,1.5 15.6,1.7 15.1,2.2 C14.6,2.6 14.4,3.2 14.4,3.9 C14.4,4.6 14.6,5.2 15.1,5.6 C15.5,6 16.1,6.3 16.8,6.3 C17.5,6.3 18.1,6 18.6,5.4 L19.1,5.9 C18.8,6.2 18.5,6.5 18.1,6.7 C17.7,6.9 17.3,7 16.8,7 Z" id="Shape"></path>
                                    <polygon id="Shape" points="22.3 6.8 21.5 6.8 21.5 1.5 19.8 1.5 19.8 0.8 24 0.8 24 1.5 22.3 1.5"></polygon>
                                    <path d="M29.3,0.8 L27,5.9 C26.7,6.6 26.2,7 25.6,7 C25.4,7 25.2,7 25,6.9 L25.2,6.2 C25.3,6.3 25.5,6.3 25.6,6.3 C25.8,6.3 25.9,6.3 26,6.2 C26.1,6.1 26.2,6 26.3,5.8 L26.5,5.3 L24.5,0.9 L25.4,0.9 L26.9,4.3 L28.3,0.9 L29.3,0.9 L29.3,0.8 Z" id="Shape"></path>
                                    <polygon id="Shape" points="30.1 6.8 30.1 0.8 34.4 0.8 34.4 6.8 33.6 6.8 33.6 1.5 30.8 1.5 30.8 6.8"></polygon>
                                    <polygon id="Shape" points="35.8 6.8 35.8 0.8 36.6 0.8 36.6 3.4 39.6 3.4 39.6 0.8 40.4 0.8 40.4 6.8 39.6 6.8 39.6 4.1 36.6 4.1 36.6 6.8 35.8 6.8"></polygon>
                                    <path d="M46.7,6.1 C46.1,6.7 45.4,7 44.5,7 C43.6,7 42.9,6.7 42.3,6.1 C41.7,5.5 41.4,4.8 41.4,3.9 C41.4,3 41.7,2.3 42.3,1.7 C42.9,1.1 43.6,0.8 44.5,0.8 C45.4,0.8 46.1,1.1 46.7,1.7 C47.3,2.3 47.6,3 47.6,3.9 C47.6,4.7 47.3,5.5 46.7,6.1 Z M42.8,5.6 C43.2,6 43.8,6.3 44.4,6.3 C45,6.3 45.6,6.1 46,5.6 C46.4,5.2 46.7,4.6 46.7,3.9 C46.7,3.2 46.5,2.6 46,2.2 C45.6,1.8 45,1.5 44.4,1.5 C43.8,1.5 43.2,1.7 42.8,2.2 C42.4,2.6 42.1,3.2 42.1,3.9 C42.1,4.6 42.4,5.1 42.8,5.6 Z" id="Shape"></path>
                                    <path d="M50.7,6.8 L50.7,0.8 L52.9,0.8 C53.4,0.8 53.8,1 54.1,1.3 C54.4,1.6 54.6,2 54.6,2.5 C54.6,2.8 54.5,3 54.4,3.3 C54.3,3.5 54.1,3.7 53.8,3.8 C54.1,3.9 54.3,4.1 54.5,4.3 C54.7,4.5 54.8,4.8 54.8,5.2 C54.8,5.7 54.6,6.1 54.3,6.4 C53.9,6.7 53.5,6.9 53,6.9 L50.7,6.9 L50.7,6.8 Z M51.5,3.4 L52.9,3.4 C53.2,3.4 53.4,3.3 53.6,3.1 C53.8,2.9 53.9,2.7 53.9,2.5 C53.9,2.3 53.8,2.1 53.6,1.9 C53.4,1.7 53.2,1.6 52.9,1.6 L51.5,1.6 L51.5,3.4 Z M51.5,6.1 L53.1,6.1 C53.4,6.1 53.6,6 53.8,5.8 C54,5.6 54.1,5.4 54.1,5.1 C54.1,4.9 54,4.6 53.8,4.4 C53.6,4.2 53.4,4.1 53.1,4.1 L51.6,4.1 L51.6,6.1 L51.5,6.1 Z" id="Shape"></path>
                                </g>
                            </g>
                        </g>
                    </g>
                </g>
            </g>
        </g>
    </g>
</svg>